<?xml version="1.0" encoding="iso-8859-1"?>
<!-- Uploaded to: SVG Repo, www.svgrepo.com, Generator: SVG Repo Mixer Tools -->
<svg fill="#000000" height="800px" width="800px" version="1.1" id="Layer_1" xmlns="http://www.w3.org/2000/svg" xmlns:xlink="http://www.w3.org/1999/xlink" 
	 viewBox="0 0 512.001 512.001" xml:space="preserve">
<g>
	<g>
		<path d="M503.55,435.304h-38.573v-43.222c14.283-1.175,36.306-7.316,36.306-39.414c0-25.223-15.683-86.91-44.754-86.91
			s-44.754,61.687-44.754,86.91c0,15.068,4.813,26.007,14.305,32.514c6.641,4.552,14.599,6.26,21.997,6.866v43.255h-62.424
			l8.826-84.976c0.248-2.38-0.526-4.753-2.129-6.531c-0.856-0.95-1.906-1.679-3.063-2.151c-4.708-1.924-9.436-3.782-13.907-6.206
			c-34.289-18.588-71.619-49.292-106.695-87.9v-12.767l41.647-15.865c2.663-1.015,4.782-3.216,5.436-5.99
			c1.003-4.258-1.32-8.406-5.208-9.888l-47.316-18.025c-3.408-1.299-7.369-0.287-9.734,2.771c-1.174,1.518-1.724,3.429-1.724,5.348
			v54.418c-35.076,38.606-72.403,69.31-106.692,87.897c-4.472,2.424-9.202,4.283-13.91,6.208c-1.157,0.473-2.207,1.202-3.062,2.151
			c-1.602,1.778-2.376,4.15-2.129,6.531l8.824,84.976H63.921v-43.222c14.283-1.176,36.305-7.316,36.305-39.414
			c0-25.223-15.683-86.91-44.754-86.91c-29.071,0-44.754,61.687-44.754,86.91c0,15.068,4.813,26.007,14.305,32.514
			c6.641,4.554,14.6,6.26,21.998,6.868v43.255H8.803c-4.627,0-8.661,3.564-8.8,8.189c-0.143,4.787,3.693,8.711,8.446,8.711h494.747
			c4.627,0,8.661-3.564,8.8-8.189C512.14,439.229,508.304,435.304,503.55,435.304z M268.686,210.926v-5.765l15.133,5.765
			l-15.133,5.765V210.926z M27.616,352.668c0-12.633,4.027-31.117,10.022-45.995c6.648-16.501,13.904-24.016,17.834-24.016
			c3.929,0,11.187,7.515,17.835,24.016c5.994,14.879,10.022,33.363,10.022,45.995c0,17.257-6.768,22.796-27.856,22.796
			C34.384,375.464,27.616,369.925,27.616,352.668z M151.809,435.304l-8.038-77.4h14.75l5.797,77.4H151.809z M241.451,282.671
			c-10.752,31.554-19.69,49.067-25.441,58.336h-46.993C192.771,326.096,217.413,306.257,241.451,282.671z M181.264,435.304
			l-5.797-77.4h18.964l3.483,77.4H181.264z M225.356,406.484v28.82h-10.527l-3.483-77.4h20.819l0.565,31.778
			C228.207,393.875,225.356,399.845,225.356,406.484z M278.221,435.304h-35.967v-28.82c0-3.33,2.709-6.04,6.038-6.04h23.89
			c3.33,0,6.038,2.709,6.038,6.04V435.304z M249.066,357.906h22.343l-0.457,25.642h-21.43L249.066,357.906z M235.464,341.007
			c8.121-15.277,16.572-36.191,24.772-61.313c8.201,25.124,16.653,46.037,24.774,61.313H235.464z M305.646,435.304h-10.527v-28.82
			c0-6.639-2.851-12.61-7.375-16.802l0.566-31.778h20.819L305.646,435.304z M339.21,435.304h-16.648l3.483-77.4h18.962
			L339.21,435.304z M304.464,341.006c-5.751-9.269-14.688-26.781-25.441-58.335c24.038,23.586,48.679,43.425,72.434,58.335H304.464z
			 M368.666,435.304h-12.509l5.797-77.4h14.75L368.666,435.304z M428.675,352.668c0-12.633,4.027-31.117,10.022-45.995
			c6.647-16.501,13.904-24.016,17.834-24.016s11.187,7.515,17.834,24.016c5.993,14.879,10.022,33.363,10.022,45.995
			c0,17.257-6.768,22.796-27.855,22.796C435.443,375.464,428.675,369.925,428.675,352.668z"/>
	</g>
</g>
<g>
	<g>
		<path d="M503.551,467.41H8.45c-4.666,0-8.449,3.783-8.449,8.449c0,4.666,3.783,8.449,8.449,8.449h495.102
			c4.667,0,8.449-3.783,8.449-8.449C512,471.193,508.217,467.41,503.551,467.41z"/>
	</g>
</g>
<g>
	<g>
		<path d="M370.428,27.692c-35.872,0-65.056,29.185-65.056,65.057c0,35.872,29.184,65.057,65.056,65.057
			c35.873,0,65.057-29.185,65.057-65.057C435.485,56.877,406.302,27.692,370.428,27.692z M370.428,140.908
			c-26.554,0-48.157-21.604-48.157-48.159s21.602-48.159,48.157-48.159c26.554,0,48.159,21.604,48.159,48.159
			S396.983,140.908,370.428,140.908z"/>
	</g>
</g>
</svg>